<svg xmlns="http://www.w3.org/2000/svg" xmlns:xlink="http://www.w3.org/1999/xlink" width="500" zoomAndPan="magnify" viewBox="0 0 375 374.999991" height="500" preserveAspectRatio="xMidYMid meet" version="1.0"><defs><clipPath id="daa2713635"><path d="M 103 4.683594 L 138 4.683594 L 138 56 L 103 56 Z M 103 4.683594 " clip-rule="nonzero"/></clipPath></defs><path fill="#000000" d="M 71.296875 221.320312 L 187.714844 221.320312 L 187.714844 343.589844 C 187.714844 343.589844 188.121094 352.617188 181.972656 359.179688 C 177.054688 364.105469 169.675781 366.976562 159.429688 366.566406 C 149.179688 366.566406 141.390625 363.695312 136.882812 358.359375 C 129.503906 350.15625 131.144531 337.433594 131.144531 337.023438 C 131.554688 334.972656 129.914062 332.511719 127.863281 332.511719 C 125.816406 332.101562 123.355469 333.742188 123.355469 335.792969 C 123.355469 336.613281 120.894531 352.207031 130.734375 363.695312 C 136.882812 371.078125 146.722656 374.773438 159.839844 375.183594 C 159.839844 375.183594 160.25 375.183594 160.25 375.183594 C 172.546875 375.183594 181.972656 371.902344 188.121094 364.925781 C 196.730469 355.898438 196.320312 343.589844 196.320312 343.589844 L 196.320312 221.320312 L 312.738281 221.320312 C 315.609375 221.320312 317.660156 219.269531 318.066406 216.398438 C 318.476562 213.113281 318.476562 209.421875 318.476562 206.140625 C 318.476562 138.03125 263.957031 82.230469 196.320312 80.179688 L 196.320312 74.433594 C 196.320312 71.972656 194.683594 70.332031 192.222656 70.332031 C 189.761719 70.332031 188.121094 71.972656 188.121094 74.433594 L 188.121094 80.179688 C 146.722656 81.410156 109.007812 102.746094 86.460938 137.621094 C 72.523438 158.132812 65.554688 181.933594 65.554688 206.140625 C 65.554688 209.421875 65.554688 213.113281 65.964844 216.398438 C 66.375 219.269531 68.425781 221.320312 71.296875 221.320312 Z M 252.070312 213.113281 L 131.144531 213.113281 C 132.785156 134.746094 175.824219 99.050781 191.8125 88.792969 C 207.390625 99.050781 250.429688 134.746094 252.070312 213.113281 Z M 309.460938 206.140625 C 309.460938 208.601562 309.460938 210.652344 309.050781 213.113281 L 259.859375 213.113281 C 258.628906 143.363281 225.835938 105.617188 205.339844 88.792969 C 264.367188 96.179688 309.460938 146.234375 309.460938 206.140625 Z M 92.609375 142.132812 C 111.878906 112.589844 143.03125 93.308594 177.464844 89.203125 C 156.96875 106.027344 124.175781 143.363281 122.945312 213.523438 L 73.753906 213.523438 C 73.753906 211.0625 73.753906 208.601562 73.753906 206.140625 C 73.753906 183.574219 80.3125 161.417969 92.609375 142.132812 Z M 92.609375 142.132812 " fill-opacity="1" fill-rule="nonzero"/><g clip-path="url(#daa2713635)"><path fill="#000000" d="M 120.484375 4.683594 L 105.730469 30.121094 C 102.859375 35.457031 102.859375 41.609375 105.730469 46.945312 C 108.597656 52.277344 114.335938 55.558594 120.484375 55.558594 C 126.632812 55.558594 131.964844 52.277344 135.242188 46.945312 C 138.113281 41.609375 138.113281 35.457031 135.242188 30.121094 Z M 127.863281 42.839844 C 126.226562 45.710938 123.355469 47.355469 120.484375 47.355469 C 117.617188 47.355469 114.335938 45.710938 113.105469 42.839844 C 111.878906 39.96875 111.46875 36.6875 113.105469 34.222656 L 120.484375 21.09375 L 127.863281 34.222656 C 129.503906 37.097656 129.503906 40.378906 127.863281 42.839844 Z M 127.863281 42.839844 " fill-opacity="1" fill-rule="nonzero"/></g><path fill="#000000" d="M 165.578125 23.96875 L 150.820312 49.40625 C 147.949219 54.738281 147.949219 60.894531 150.820312 66.226562 C 153.691406 71.5625 159.429688 74.84375 165.578125 74.84375 C 171.726562 74.84375 177.054688 71.5625 180.335938 66.226562 C 183.613281 60.894531 183.203125 54.738281 180.335938 49.40625 Z M 172.957031 62.125 C 171.316406 64.996094 168.445312 66.636719 165.578125 66.636719 C 162.707031 66.636719 159.429688 64.996094 158.199219 62.125 C 156.558594 59.253906 156.558594 55.96875 158.199219 53.507812 L 165.578125 40.378906 L 172.957031 53.507812 C 174.59375 56.378906 174.59375 59.664062 172.957031 62.125 Z M 172.957031 62.125 " fill-opacity="1" fill-rule="nonzero"/><path fill="#000000" d="M 215.585938 58.84375 C 221.738281 58.84375 227.066406 55.558594 230.34375 50.226562 C 233.625 44.890625 233.214844 38.738281 230.34375 33.402344 L 215.585938 7.964844 L 200.832031 33.402344 C 197.960938 38.738281 197.960938 44.890625 200.832031 50.226562 C 203.699219 55.558594 209.4375 58.84375 215.585938 58.84375 Z M 207.800781 37.507812 L 215.179688 24.378906 L 222.964844 37.507812 C 224.605469 40.378906 224.605469 43.660156 222.964844 46.125 C 221.328125 48.996094 218.457031 50.636719 215.585938 50.636719 C 212.71875 50.636719 209.4375 48.996094 208.210938 46.125 C 206.160156 43.25 206.160156 40.378906 207.800781 37.507812 Z M 207.800781 37.507812 " fill-opacity="1" fill-rule="nonzero"/><path fill="#000000" d="M 258.21875 74.84375 C 264.367188 74.84375 269.699219 71.5625 272.976562 66.226562 C 275.847656 60.894531 275.847656 54.738281 272.976562 49.40625 L 258.21875 23.96875 L 243.460938 49.40625 C 240.59375 54.738281 240.59375 60.894531 243.460938 66.226562 C 246.332031 71.5625 252.070312 74.84375 258.21875 74.84375 Z M 250.429688 53.507812 L 258.21875 40.378906 L 265.597656 53.507812 C 267.238281 56.378906 267.238281 59.664062 265.597656 62.125 C 263.957031 64.585938 261.089844 66.636719 258.21875 66.636719 C 255.351562 66.636719 252.070312 64.996094 250.839844 62.125 C 249.609375 59.253906 248.792969 56.378906 250.429688 53.507812 Z M 250.429688 53.507812 " fill-opacity="1" fill-rule="nonzero"/></svg>